<?xml version="1.0" encoding="utf-8"?>
<!-- Generator: Adobe Illustrator 22.1.0, SVG Export Plug-In . SVG Version: 6.00 Build 0)  -->
<svg version="1.1" id="Layer_2_1_" xmlns="http://www.w3.org/2000/svg" xmlns:xlink="http://www.w3.org/1999/xlink" x="0px" y="0px"
	 viewBox="0 0 500 140" style="enable-background:new 0 0 500 140;" xml:space="preserve">
<style type="text/css">
	.st0{fill:#FFFFFF;}
	.st1{fill:#64A70B;}
</style>
<g>
	<g>
		<path class="st0" d="M162.2,72.6h-10.7v10.3h10.7v11.7c-2.7,1.2-7,2.1-11.6,2.1c-1.9,0-3.7-0.2-5.4-0.5
			c-11.6-2.1-18.3-11.2-18.3-24.3c0-14.7,8.8-25,25.5-25c7.5,0,13.7,1.9,19.1,4.6V39.7c-5.3-1.9-12-3.5-20.1-3.5
			c-23,0-38,15.4-38,36.5c0,18.6,11.7,32.5,31.8,34.3c1.4,0.1,2.9,0.2,4.4,0.2c9.6,0,18.9-2.4,25.2-5.6V82.8V72.5L162.2,72.6
			L162.2,72.6z"/>
		<path class="st0" d="M182.8,81.5c0-14.9,8.2-26.2,22.4-26.2c14,0,22.1,10.1,22.1,26.6v2.9h-31.8c0.2,7.7,5.7,12.6,14,12.6
			c5,0,9-1.4,12.6-3.4l3.8,8.6c-5.2,3.2-11.4,4.6-17.5,4.6C190,107.3,182.8,94.9,182.8,81.5z M214.5,76.1
			c-0.2-5.7-2.9-11.2-9.6-11.2c-6.2,0-9.7,5.3-9.7,11.2H214.5z"/>
		<path class="st0" d="M232.9,81.2c0-14.9,10-25.9,24.8-25.9s24.9,11,24.9,25.9s-10.1,26.1-24.9,26.1
			C242.9,107.3,232.9,96.2,232.9,81.2z M269.7,81.2c0-9.1-4.1-15.9-12-15.9s-12,6.7-12,15.9c0,9.3,4.1,16,12,16
			S269.7,90.5,269.7,81.2z"/>
		<path class="st0" d="M290.2,56.5h10.6l1.4,5.6c4.5-4.5,8.6-6.8,13.7-6.8c2.3,0,5,0.6,7,2l-4.4,10.6c-2.2-1.4-4.2-1.7-5.7-1.7
			c-3.2,0-6,1.4-10.1,5v35.1h-12.5V56.5L290.2,56.5z"/>
		<path class="st0" d="M320.6,116.5c0-5.5,3.8-9.8,8.9-12c-2.1-1.2-3.2-3.6-3.2-6.2c0-2.9,1.9-6.5,6-9.4c-5.3-3-8.3-8.8-8.3-15.4
			c0-9.1,6.7-18.3,20.3-18.3c4.4,0,7.9,1.1,9.9,2.2c0.5,0.2,0.9,0.1,1.2-0.2c2.6-2.6,5.9-4.3,12-4.3c1.2,0,2.6,0.1,3.4,0.2l-2.5,9
			c-1.2-0.3-2.5-0.5-3.7-0.5c-1.1,0-2.6,0.2-3.7,0.9c2.9,3.2,4.4,7.3,4.4,11.8c0,11.1-8.5,18.4-20.6,18.4c-2.3,0-4.4-0.3-6.1-0.9
			c-0.9,1.6-1.2,2.6-1.2,3.7c0,8.9,32.7,0.6,32.7,19.2c0,9-9,16.4-26.2,16.4C329.1,131.2,320.6,125.2,320.6,116.5z M358,116.1
			c0-7.1-15.4-5.7-22.1-8.3c-1.6,1.2-4,3.2-4,6.5c0,4.9,5.2,8,13.6,8C353,122.3,358,119.8,358,116.1z M353.4,74.1
			c0-4.9-3.4-9.3-8.9-9.3c-4.9,0-8.6,3.2-8.6,9.3c0,5,3.2,9.3,8.7,9.3C349.6,83.2,353.4,80.1,353.4,74.1z"/>
		<path class="st0" d="M376.6,42.3c0-4.2,3.2-7.6,7.7-7.6s7.8,3.3,7.8,7.6c0,4.1-3.4,7.5-7.8,7.5C379.9,49.8,376.6,46.5,376.6,42.3z
			 M378,56.5h12.6v49.7H378V56.5z"/>
		<path class="st0" d="M431.1,101.5c-3.6,3.2-8.1,5.8-14.3,5.8c-9.5,0-16.5-6.3-16.5-15.9c0-6.7,3.2-10.9,8.4-13.6
			c3.5-1.8,7.8-2.6,12.8-2.9l8.5-0.3V73c0-5.8-3.8-8.3-9.6-8.3c-4.9,0-9.5,1.6-13,3.5l-4.1-8.1c5.9-3.3,12.3-4.9,19.2-4.9
			c13.4,0,20,6.1,20,18.1v20.2c0,5.8,0.2,10.1,0.9,12.7h-10.5L431.1,101.5z M423.3,83.3c-3.2,0.1-5.6,0.6-7.3,1.6
			c-2.1,1.2-3,3.2-3,5.7c0,4.3,2.9,6.8,7.4,6.8c4.6,0,8-2.3,9.6-3.7V83.1L423.3,83.3z"/>
		<path class="st0" d="M453,56.5h10.7l1.2,5.6c5.3-4.1,10.8-6.8,17-6.8c7.9,0,16,3.9,16,18.1v32.9h-12.6v-29
			c0-6.1-1.2-11.1-7.7-11.1c-4.1,0-8.5,2.2-12.2,5.3v34.8H453V56.5L453,56.5z"/>
	</g>
	<g>
		<path class="st1" d="M68.5,10.7c-8.7,0-16.6,3.6-22.3,9.3c-1.5,1.5-2.8,3.1-4,4.9c5-3.3,11-5.3,17.4-5.3h31.5v31.5
			c0,6.4-2,12.4-5.3,17.4c8.5-5.7,14.1-15.3,14.1-26.3V10.7L68.5,10.7L68.5,10.7z"/>
		<path class="st0" d="M51.6,27.6c-8.7,0-16.6,3.5-22.3,9.2c-1.4,1.4-2.8,3-3.9,4.8c5-3.4,11.1-5.4,17.5-5.4h31.5v31.5
			c0,6.5-2,12.5-5.4,17.5c8.4-5.7,14-15.3,14-26.2V27.5L51.6,27.6L51.6,27.6z"/>
		<path class="st1" d="M66.4,44.3v31.5c0,17.4-14.1,31.5-31.5,31.5H3.4V75.8c0-17.4,14.1-31.5,31.5-31.5L66.4,44.3L66.4,44.3z
			 M24.7,98.1c2-1.1,2.6-2.3,2.6-5.5v-9.3H18c-3.6,0-5.5,0.7-6.6,2.6l-0.2,0.4h13.2v12L24.7,98.1z M37.9,100.8
			c2.4-1.3,3-2.4,3.1-5.6V69.7H16c-4.1,0-5.2,1.3-6.4,3l-0.2,0.4h28.1v28L37.9,100.8z M51.6,92.4c2.4-1.6,3-2.4,3.2-5.7V55.8h-31
			c-3.9,0-5.7,1.8-6.6,3.2L17,59.4h34.3v33.2L51.6,92.4z"/>
	</g>
</g>
</svg>
